Coordinates
version=1
nRows=16
nColumns=36
inDegrees=yes

Units are S.I. units (second, meters, Newtons, ...)
If the header above contains a line with 'inDegrees', this indicates whether rotational values are in degrees (yes) or radians (no).

endheader
time	pelvis_tilt	pelvis_list	pelvis_rotation	pelvis_tx	pelvis_ty	pelvis_tz	hip_flexion_r	hip_adduction_r	hip_rotation_r	knee_angle_r	knee_angle_r_beta	ankle_angle_r	subtalar_angle_r	mtp_angle_r	hip_flexion_l	hip_adduction_l	hip_rotation_l	knee_angle_l	knee_angle_l_beta	ankle_angle_l	subtalar_angle_l	mtp_angle_l	lumbar_extension	lumbar_bending	lumbar_rotation	arm_flex_r	arm_add_r	arm_rot_r	elbow_flex_r	pro_sup_r	arm_flex_l	arm_add_l	arm_rot_l	elbow_flex_l	pro_sup_l
      0.00000000	      0.49677524	     -2.08123701	     -4.42434135	      0.07336425	      0.92257766	      0.08167467	      0.78974228	      0.46391555	      2.30779506	      5.34111889	      0.09322011	     -0.70606288	    -17.21078130	     -7.49377565	     -1.70449095	     -7.81990368	     -2.74647201	      2.66701973	      0.04654828	      6.00372923	    -10.15913479	     -7.49377565	     -0.92389282	      1.53081943	     -1.00077419	     34.50515050	      9.49627248	     60.98797565	    118.22339520	    108.81548463	     40.15660175	     10.17268837	     43.74490403	    128.35690159	    103.83274018
      0.01666670	     -1.48705275	     -1.61969062	     -4.78815467	      0.07614551	      0.91920791	      0.08139666	      2.83014551	      0.40913855	      2.67782182	      5.21839699	      0.09107821	      2.83063329	    -15.68221389	     -7.49462948	      1.04822152	     -7.07779828	     -3.12691572	      3.60276160	      0.06288005	      5.62361250	    -10.02424224	     -7.49462948	      2.47368668	      1.49992504	     -1.22060513	     35.32778552	      9.65291579	     61.63782648	    119.73139341	    107.06895585	     41.26786181	     10.41018438	     44.01597066	    130.66808183	    101.50119018
      0.03333330	     -2.37356902	     -0.85356669	     -4.99620423	      0.07800109	      0.91443463	      0.08199075	      3.48918678	     -0.33777511	      1.88616578	      4.58751878	      0.08006731	      3.24814959	    -15.15799069	     -7.49598893	      2.35399656	     -6.38027011	     -3.62588665	      4.27968576	      0.07469461	      5.21367598	    -10.17735814	     -7.49598893	      4.11202109	      0.76736005	     -0.33638349	     34.61438462	      9.84183642	     61.93240214	    120.28551222	    104.32583541	     41.40986908	     10.86205940	     44.33075187	    131.91765153	     97.42395103
      0.05000000	     -2.47107078	     -0.36780510	     -5.15285511	      0.07768474	      0.91407970	      0.08220788	      3.56866429	     -0.81463135	      1.67715889	      4.46308473	      0.07789552	      3.78922461	    -14.59379369	     -7.49630680	      2.38659624	     -5.90738885	     -3.71763704	      4.28223463	      0.07473909	      4.90168927	    -10.93110018	     -7.49630680	      4.46323225	      0.12030387	      0.27763584	     33.77246649	      9.82386005	     62.91147545	    119.68398285	    103.61302359	     41.85222536	     11.20769508	     45.27342113	    132.36903436	     96.30488288
      0.06666670	     -2.65987486	     -0.10058077	     -5.21387727	      0.07830144	      0.91482698	      0.08238006	      3.62827039	     -1.02534396	      1.35278029	      4.20549596	      0.07339975	      4.12762002	    -14.17561200	     -7.49750269	      2.51182660	     -5.67328573	     -3.38487821	      4.14383339	      0.07232354	      4.39145737	    -11.99464264	     -7.49750269	      4.86764048	     -0.11079021	      0.66824580	     33.19751694	      9.84740253	     63.68735611	    119.16242185	    104.79540850	     41.96924541	     11.30854984	     46.22027796	    132.38330034	     93.88770242
      0.08333330	     -2.57866226	      0.04336518	     -5.21003338	      0.07833425	      0.91553661	      0.08237140	      3.41467365	     -1.14638999	      1.13794435	      4.01810556	      0.07012917	      4.32930347	    -13.70031341	     -7.49790182	      2.43035049	     -5.49367054	     -3.04509920	      4.08580154	      0.07131069	      4.31868434	    -12.38010450	     -7.49790182	      5.00009326	     -0.18521723	      0.86194469	     32.96505701	      9.91889134	     64.11983311	    118.61863468	    102.90923429	     41.96342332	     11.31391357	     46.54429105	    132.23489509	     91.62886640
      0.10000000	     -2.63420273	      0.03996795	     -5.23333717	      0.07846166	      0.91599076	      0.08299008	      3.43199079	     -1.10138692	      1.13884403	      3.89742124	      0.06802283	      4.26789296	    -13.78597959	     -7.49842175	      2.56347651	     -5.51160704	     -2.82907104	      4.07016481	      0.07103778	      4.16618278	    -12.81580311	     -7.49842175	      5.19315961	     -0.19193266	      1.13726426	     32.55149945	      9.74936470	     64.21574693	    118.45637618	    102.43309343	     42.09858662	     11.57244523	     47.13553819	    131.76355016	     90.11740413
      0.11666670	     -2.58028556	     -0.03837366	     -5.19083683	      0.07843936	      0.91693076	      0.08293021	      3.29370651	     -1.02961576	      0.94879065	      3.73978863	      0.06527162	      4.20338846	    -13.50122688	     -7.49868380	      2.53197992	     -5.57866228	     -2.59053444	      4.04511738	      0.07060062	      4.04357696	    -13.02308543	     -7.49868380	      5.28093049	     -0.05151467	      0.99093832	     32.42335607	      9.66345924	     64.28814209	    118.20059143	    100.62753945	     42.12524410	     11.57854912	     47.30538819	    131.47031524	     87.70692752
      0.13333330	     -2.53809211	     -0.12519937	     -5.11727907	      0.07785413	      0.91821362	      0.08273993	      3.23288304	     -0.96221279	      0.78686763	      3.60243390	      0.06287433	      4.16311838	    -13.34635458	     -7.49890374	      2.48238051	     -5.64422608	     -2.33871408	      3.99484724	      0.06972324	      4.03356618	    -13.11200081	     -7.49890374	      5.26590954	      0.09719983	      0.89930067	     32.50873111	      9.65796217	     64.45881163	    118.10606275	     98.65637306	     42.20485435	     11.64355929	     47.50628623	    131.25300918	     85.32281299
      0.15000000	     -2.46662386	     -0.18268702	     -5.00582497	      0.07796184	      0.91551709	      0.08270086	      3.12116599	     -0.92408738	      0.92204136	      3.49101332	      0.06092968	      3.85828320	    -13.74881697	     -7.49910306	      2.43125042	     -5.70820524	     -2.20790683	      4.02332944	      0.07022035	      3.89972247	    -13.17924824	     -7.49910306	      5.20297276	      0.04676988	      1.04626937	     32.47801430	      9.53983419	     64.06326297	    118.25312503	     99.91424358	     42.51554278	     11.91351648	     47.76187859	    130.54427514	     85.17586708
      0.16666670	     -2.37165961	     -0.23253602	     -4.91809611	      0.07827766	      0.91729301	      0.08255714	      2.97226952	     -0.88730981	      0.77357431	      3.45330686	      0.06027157	      3.68347262	    -13.66759277	     -7.49925900	      2.31751631	     -5.72208610	     -1.98423825	      4.01852885	      0.07013656	      3.63665528	    -13.47275003	     -7.49925900	      5.04327715	      0.14796728	      0.86839480	     32.74038884	      9.50366893	     64.06579526	    118.05888099	     98.76630321	     42.44358397	     11.88377079	     47.81222372	    130.45676647	     83.48101294
      0.18333330	     -2.31376421	     -0.26721086	     -4.79780153	      0.07768808	      0.91779656	      0.08209121	      2.88141609	     -0.86594602	      0.67717544	      3.40166043	      0.05937017	      3.53113952	    -13.70011404	     -7.49962761	      2.31484705	     -5.73538629	     -1.91663927	      4.07140601	      0.07105944	      3.50483784	    -13.55373386	     -7.49962761	      4.87797041	      0.17986676	      0.88207140	     32.86869261	      9.47940250	     63.85648210	    118.38957549	    100.67019699	     42.43914369	     11.99294130	     47.96086114	    130.23184738	     84.79725556
      0.20000000	     -2.31320155	     -0.25650387	     -4.64489352	      0.07822058	      0.91845841	      0.08218925	      2.78710219	     -0.89819230	      0.39647843	      3.28115799	      0.05726701	      3.61365339	    -13.34702566	     -7.49966480	      2.31357968	     -5.69680853	     -1.72695955	      4.09190509	      0.07141722	      3.30294063	    -13.53193804	     -7.49966480	      4.96055328	      0.22291252	      0.72377982	     32.90366596	      9.46912528	     63.96701849	    119.07543052	     99.37337332	     42.25902696	     11.98468294	     48.00958617	    130.23074217	     83.44529932
      0.21666670	     -2.08870982	     -0.27765799	     -4.61946978	      0.07898186	      0.91839652	      0.08193590	      2.46486170	     -0.88751376	      0.61352161	      3.16501252	      0.05523989	      3.35029379	    -13.82653398	     -7.49972017	      1.96911823	     -5.67131557	     -1.77086056	      3.90656447	      0.06818241	      3.20288242	    -13.45525351	     -7.49972017	      4.73530688	      0.19301371	      0.83475305	     32.80845764	      9.33783931	     64.07467450	    119.93078640	     99.40321442	     42.23950126	     12.12633399	     48.28603304	    129.74834264	     83.29871281
      0.23333330	     -1.95829388	     -0.27488364	     -4.57572074	      0.07863880	      0.91792582	      0.08199686	      2.25406564	     -0.88040126	      0.62791045	      3.06944913	      0.05357199	      3.31488061	    -13.99076902	     -7.49978915	      1.82056613	     -5.64287238	     -1.70641344	      3.84103201	      0.06703866	      3.07355483	    -13.51826947	     -7.49978915	      4.58806317	      0.19171848	      0.76329345	     32.80055026	      9.28163156	     64.39011960	    120.41635964	     98.62420618	     42.28747066	     12.12741498	     48.38689657	    129.54613061	     82.75275182
      0.25000000	     -1.96187242	     -0.17164168	     -4.46707611	      0.07831432	      0.91901866	      0.08188071	      2.17849480	     -0.99187441	      0.54021545	      2.89653391	      0.05055405	      3.50991283	    -13.69490738	     -7.49985544	      1.81904625	     -5.52517064	     -1.78223420	      3.74123757	      0.06529691	      2.98108115	    -13.37494348	     -7.49985544	      4.57776701	      0.04083706	      0.69303826	     32.55682718	      9.09747991	     64.46103970	    121.02650755	    100.76095636	     42.25681613	     12.13640869	     48.51162779	    129.29026841	     83.56348018
